<svg xmlns="http://www.w3.org/2000/svg" xmlns:xlink="http://www.w3.org/1999/xlink" contentStyleType="text/css" height="680px" preserveAspectRatio="none" style="width:793px;height:680px;background:#FFFFFF;" version="1.1" viewBox="0 0 793 680" width="793px" zoomAndPan="magnify"><defs/><g><!--cluster be899d1f7f4b1410455bc8ef6b0605f0--><g id="cluster_be899d1f7f4b1410455bc8ef6b0605f0"><polygon fill="none" points="16,140.74,26,130.74,231,130.74,231,287.93,221,297.93,16,297.93,16,140.74" style="stroke:#181818;stroke-width:1.0;"/><line style="stroke:#181818;stroke-width:1.0;" x1="221" x2="231" y1="140.74" y2="130.74"/><line style="stroke:#181818;stroke-width:1.0;" x1="16" x2="221" y1="140.74" y2="140.74"/><line style="stroke:#181818;stroke-width:1.0;" x1="221" x2="221" y1="140.74" y2="297.93"/><text fill="#000000" font-family="sans-serif" font-size="14" font-weight="bold" lengthAdjust="spacing" textLength="110" x="64.5" y="156.7351">Order-service</text></g><!--cluster 76dae54da26b1aab0953f9fe7e4a861d--><g id="cluster_76dae54da26b1aab0953f9fe7e4a861d"><polygon fill="none" points="271,132.59,281,122.59,517,122.59,517,554.37,507,564.37,271,564.37,271,132.59" style="stroke:#181818;stroke-width:1.0;"/><line style="stroke:#181818;stroke-width:1.0;" x1="507" x2="517" y1="132.59" y2="122.59"/><line style="stroke:#181818;stroke-width:1.0;" x1="271" x2="507" y1="132.59" y2="132.59"/><line style="stroke:#181818;stroke-width:1.0;" x1="507" x2="507" y1="132.59" y2="564.37"/><text fill="#000000" font-family="sans-serif" font-size="14" font-weight="bold" lengthAdjust="spacing" textLength="123" x="328.5" y="148.5851">Order-postgres</text></g><!--cluster d5bef1bc67226890a0dc4913b4f92526--><g id="cluster_d5bef1bc67226890a0dc4913b4f92526"><polygon fill="none" points="557,132.59,567,122.59,776,122.59,776,296.08,766,306.08,557,306.08,557,132.59" style="stroke:#181818;stroke-width:1.0;"/><line style="stroke:#181818;stroke-width:1.0;" x1="766" x2="776" y1="132.59" y2="122.59"/><line style="stroke:#181818;stroke-width:1.0;" x1="557" x2="766" y1="132.59" y2="132.59"/><line style="stroke:#181818;stroke-width:1.0;" x1="766" x2="766" y1="132.59" y2="306.08"/><text fill="#000000" font-family="sans-serif" font-size="14" font-weight="bold" lengthAdjust="spacing" textLength="92" x="616.5" y="148.5851">Order-redis</text></g><!--entity ea9a709c06e9d5881e8002d07188230f--><g id="elem_ea9a709c06e9d5881e8002d07188230f"><rect fill="#F1F1F1" height="95.1875" rx="2.5" ry="2.5" style="stroke:#181818;stroke-width:0.5;" width="148" x="40" y="178.74"/><rect fill="#F1F1F1" height="10" style="stroke:#181818;stroke-width:0.5;" width="15" x="168" y="183.74"/><rect fill="#F1F1F1" height="2" style="stroke:#181818;stroke-width:0.5;" width="4" x="166" y="185.74"/><rect fill="#F1F1F1" height="2" style="stroke:#181818;stroke-width:0.5;" width="4" x="166" y="189.74"/><text fill="#000000" font-family="sans-serif" font-size="14" font-weight="bold" lengthAdjust="spacing" textLength="108" x="55" y="211.7351">order-service</text><text fill="#000000" font-family="sans-serif" font-size="14" lengthAdjust="spacing" textLength="4" x="55" y="228.032">&#160;</text><text fill="#000000" font-family="sans-serif" font-size="14" lengthAdjust="spacing" textLength="99" x="55" y="244.3289">restart: always</text><text fill="#000000" font-family="sans-serif" font-size="14" lengthAdjust="spacing" textLength="4" x="55" y="260.6257">&#160;</text></g><!--entity b61f915f37d371d7d05a620bb38f1793--><g id="elem_b61f915f37d371d7d05a620bb38f1793"><rect fill="#F1F1F1" height="111.4844" rx="2.5" ry="2.5" style="stroke:#181818;stroke-width:0.5;" width="176" x="298" y="170.59"/><rect fill="#F1F1F1" height="10" style="stroke:#181818;stroke-width:0.5;" width="15" x="454" y="175.59"/><rect fill="#F1F1F1" height="2" style="stroke:#181818;stroke-width:0.5;" width="4" x="452" y="177.59"/><rect fill="#F1F1F1" height="2" style="stroke:#181818;stroke-width:0.5;" width="4" x="452" y="181.59"/><text fill="#000000" font-family="sans-serif" font-size="14" font-weight="bold" lengthAdjust="spacing" textLength="121" x="313" y="203.5851">order-postgres</text><text fill="#000000" font-family="sans-serif" font-size="14" lengthAdjust="spacing" textLength="4" x="313" y="219.882">&#160;</text><text fill="#000000" font-family="sans-serif" font-size="14" lengthAdjust="spacing" textLength="136" x="313" y="236.1789">image: postgres:17</text><text fill="#000000" font-family="sans-serif" font-size="14" lengthAdjust="spacing" textLength="99" x="313" y="252.4757">restart: always</text><text fill="#000000" font-family="sans-serif" font-size="14" lengthAdjust="spacing" textLength="4" x="313" y="268.7726">&#160;</text></g><!--entity dc8a98c672f03868d54b2309867605c2--><g id="elem_dc8a98c672f03868d54b2309867605c2"><rect fill="#F1F1F1" height="39.2969" rx="2.5" ry="2.5" style="stroke:#181818;stroke-width:0.5;" width="189" x="295.5" y="501.08"/><polygon fill="#F1F1F1" points="467.5,506.08,467.5,520.08,479.5,520.08,479.5,512.08,473.5,506.08,467.5,506.08" style="stroke:#181818;stroke-width:0.5;"/><line style="stroke:#181818;stroke-width:0.5;" x1="473.5" x2="473.5" y1="506.08" y2="512.08"/><line style="stroke:#181818;stroke-width:0.5;" x1="479.5" x2="473.5" y1="512.08" y2="512.08"/><text fill="#000000" font-family="sans-serif" font-size="14" lengthAdjust="spacing" textLength="159" x="305.5" y="527.0751">/var/lib/postgresql/data</text></g><!--entity 756dfcdf5e257582b41c555778ca3648--><g id="elem_756dfcdf5e257582b41c555778ca3648"><rect fill="#F1F1F1" height="111.4844" rx="2.5" ry="2.5" style="stroke:#181818;stroke-width:0.5;" width="152" x="581" y="170.59"/><rect fill="#F1F1F1" height="10" style="stroke:#181818;stroke-width:0.5;" width="15" x="713" y="175.59"/><rect fill="#F1F1F1" height="2" style="stroke:#181818;stroke-width:0.5;" width="4" x="711" y="177.59"/><rect fill="#F1F1F1" height="2" style="stroke:#181818;stroke-width:0.5;" width="4" x="711" y="181.59"/><text fill="#000000" font-family="sans-serif" font-size="14" font-weight="bold" lengthAdjust="spacing" textLength="90" x="596" y="203.5851">order-redis</text><text fill="#000000" font-family="sans-serif" font-size="14" lengthAdjust="spacing" textLength="4" x="596" y="219.882">&#160;</text><text fill="#000000" font-family="sans-serif" font-size="14" lengthAdjust="spacing" textLength="112" x="596" y="236.1789">image: redis:7.4</text><text fill="#000000" font-family="sans-serif" font-size="14" lengthAdjust="spacing" textLength="99" x="596" y="252.4757">restart: always</text><text fill="#000000" font-family="sans-serif" font-size="14" lengthAdjust="spacing" textLength="4" x="596" y="268.7726">&#160;</text></g><!--entity be9fa1c385ea8803a5ac106fe9e19ebd--><g id="elem_be9fa1c385ea8803a5ac106fe9e19ebd"><polygon fill="#F1F1F1" points="422,16,432,6,596,6,596,58.5938,586,68.5938,422,68.5938,422,16" style="stroke:#181818;stroke-width:0.5;"/><line style="stroke:#181818;stroke-width:0.5;" x1="586" x2="596" y1="16" y2="6"/><line style="stroke:#181818;stroke-width:0.5;" x1="422" x2="586" y1="16" y2="16"/><line style="stroke:#181818;stroke-width:0.5;" x1="586" x2="586" y1="16" y2="68.5938"/><text fill="#000000" font-family="sans-serif" font-size="14" font-weight="bold" lengthAdjust="spacing" textLength="134" x="437" y="38.9951">brokerx-network</text><text fill="#000000" font-family="sans-serif" font-size="14" lengthAdjust="spacing" textLength="74" x="437" y="55.292">&#171;network&#187;</text></g><!--entity 12ca37eb6c8bdd5e04443a0cc7b62c5f--><g id="elem_12ca37eb6c8bdd5e04443a0cc7b62c5f"><rect fill="#F1F1F1" height="39.2969" rx="2.5" ry="2.5" style="stroke:#181818;stroke-width:0.5;" width="173" x="303.5" y="635.37"/><polygon fill="#F1F1F1" points="459.5,640.37,459.5,654.37,471.5,654.37,471.5,646.37,465.5,640.37,459.5,640.37" style="stroke:#181818;stroke-width:0.5;"/><line style="stroke:#181818;stroke-width:0.5;" x1="465.5" x2="465.5" y1="640.37" y2="646.37"/><line style="stroke:#181818;stroke-width:0.5;" x1="471.5" x2="465.5" y1="646.37" y2="646.37"/><text fill="#000000" font-family="sans-serif" font-size="14" lengthAdjust="spacing" textLength="143" x="313.5" y="661.3651">order_postgres_data</text></g><!--reverse link be9fa1c385ea8803a5ac106fe9e19ebd to be899d1f7f4b1410455bc8ef6b0605f0--><g id="link_be9fa1c385ea8803a5ac106fe9e19ebd_be899d1f7f4b1410455bc8ef6b0605f0"><path codeLine="31" d="M415.6478,47.9789 C368.8178,56.5389 318.66,72.54 279,106.59 C257.21,125.295 243.3025,154.3525 234.7975,179.0412 C233.7344,182.1273 232.7557,185.1452 231.8565,188.066 C231.6317,188.7962 231.4119,189.5203 231.197,190.238 C231.1433,190.4174 231.0899,190.5964 231.0367,190.775 " fill="none" id="be9fa1c385ea8803a5ac106fe9e19ebd-backto-be899d1f7f4b1410455bc8ef6b0605f0" style="stroke:#181818;stroke-width:1.0;"/><polygon fill="#181818" points="421.55,46.9,411.9774,44.5835,416.6315,47.799,413.4159,52.4531,421.55,46.9" style="stroke:#181818;stroke-width:1.0;"/></g><!--link dc8a98c672f03868d54b2309867605c2 to 12ca37eb6c8bdd5e04443a0cc7b62c5f--><g id="link_dc8a98c672f03868d54b2309867605c2_12ca37eb6c8bdd5e04443a0cc7b62c5f"><path codeLine="32" d="M390,540.68 C390,565.83 390,609.97 390,635.1 " fill="none" id="dc8a98c672f03868d54b2309867605c2-12ca37eb6c8bdd5e04443a0cc7b62c5f" style="stroke:#181818;stroke-width:1.0;"/><text fill="#000000" font-family="sans-serif" font-size="13" lengthAdjust="spacing" textLength="14" x="391" y="601.4369">rw</text></g><!--link b61f915f37d371d7d05a620bb38f1793 to dc8a98c672f03868d54b2309867605c2--><g id="link_b61f915f37d371d7d05a620bb38f1793_dc8a98c672f03868d54b2309867605c2"><path codeLine="33" d="M386.75,282.33 C387.66,348.83 389.0687,451.2506 389.6587,494.7706 " fill="none" id="b61f915f37d371d7d05a620bb38f1793-to-dc8a98c672f03868d54b2309867605c2" style="stroke:#181818;stroke-width:1.0;stroke-dasharray:7.0,7.0;"/><polygon fill="#181818" points="389.74,500.77,393.6176,491.7166,389.6722,495.7705,385.6184,491.825,389.74,500.77" style="stroke:#181818;stroke-width:1.0;"/><text fill="#000000" font-family="sans-serif" font-size="13" lengthAdjust="spacing" textLength="23" x="389" y="405.1469">use</text></g><!--reverse link be9fa1c385ea8803a5ac106fe9e19ebd to 76dae54da26b1aab0953f9fe7e4a861d--><g id="link_be9fa1c385ea8803a5ac106fe9e19ebd_76dae54da26b1aab0953f9fe7e4a861d"><path codeLine="34" d="M509,74.76 C509,87.8025 509,97.9081 509,114.7794 C509,116.8883 509,119.0092 509,121.1375 C509,121.4035 509,121.6697 509,121.936 " fill="none" id="be9fa1c385ea8803a5ac106fe9e19ebd-backto-76dae54da26b1aab0953f9fe7e4a861d" style="stroke:#181818;stroke-width:1.0;"/><polygon fill="#181818" points="509,68.76,505,77.76,509,73.76,513,77.76,509,68.76" style="stroke:#181818;stroke-width:1.0;"/></g><!--reverse link be9fa1c385ea8803a5ac106fe9e19ebd to d5bef1bc67226890a0dc4913b4f92526--><g id="link_be9fa1c385ea8803a5ac106fe9e19ebd_d5bef1bc67226890a0dc4913b4f92526"><path codeLine="35" d="M602.317,41.4275 C654.127,47.6675 710.96,63.75 749,106.59 C751.1831,109.0487 753.1695,111.6544 754.9752,114.3796 C755.878,115.7422 756.7356,117.1347 757.55,118.5536 C757.9572,119.2631 758.3536,119.9792 758.7395,120.7015 C758.9324,121.0626 759.1227,121.4253 759.3104,121.7895 C759.4042,121.9715 759.4974,122.154 759.59,122.3368 " fill="none" id="be9fa1c385ea8803a5ac106fe9e19ebd-backto-d5bef1bc67226890a0dc4913b4f92526" style="stroke:#181818;stroke-width:1.0;"/><polygon fill="#181818" points="596.36,40.71,604.8171,45.7575,601.3241,41.3079,605.7737,37.8149,596.36,40.71" style="stroke:#181818;stroke-width:1.0;"/></g><!--SRC=[ZPBTRjim38NlzHI2BmquqVzFKEGLzW3RK50Y5HXDxDPscmx3tdrEbcp9KC2zfA33SpwIiD_tnqFxtdOxrlL8lAhhDFHFDBmt7Kt7VdYgws_TmyEbs6uh3YDF50l8h8Cb245ei92bS8KYoKW9Bxs-34X3CzBmrcQw24ECA8il9aaZXR4svK359U64BOB_P3ptX-U-esxY116yY5auYcX3a1I4K2Yy345fKVXNLjVzhKbTCpRGEC4mRJZiZ_1ZPEmx-tKNwBaVfztywvp8EmIo1a6v906IY5QNMCYJWU0atYTAJfOeRT4UjPVeKLXmIgIaGv4-wfj4LvTJfFO0EzhmwzD6-ezIpcLR84-yMh_1iDwtQNrLlEpN21ES4sCE44DsNXMXWmjeJPgd4OFpymop-ezs86p_eA9DL6GwAPKBKO30RABKoPIeh7BtgDuwB1cB9MMz3IePcQsrteSCsfbmWtgskE4yrnk_CX_luX_dMVvuXNpyYoZLxE4fkHmIeYLXZD4WSlR9gMmBMxoZvhNPBf_fqYXvWyrY6BxXrN2isE9jh5QuMcqNztVgzpfInHPFyvEGIsl_L9lV]--></g></svg>